# xmcd
# 
# Track frame offsets:
#     150
#     16455
#     34641
#     51407
#     71678
#     90844
#     116458
#     135785
#     157056
#     171476
#     189807
#     207413
#     222146
#     244214
# 
# Disc length: 3500
# 
# Revision: 4
# Processed by: cddbd v1.5.2PL0 Copyright (c) Steve Scherf et al.
# Submitted via: fre:ac v1.0.17
# 
DISCID=bc0daa0e
DTITLE=Wynonna - What The World Needs Now Is Love
DYEAR=2003
DGENRE=Country
TTITLE0=What The World Needs
TTITLE1=Heaven Help Me
TTITLE2=It All Comes Down To Love
TTITLE3=Flies On The Butter (You Can't Go Home Again) (With Naomi Judd)
TTITLE4=I Will Be
TTITLE5=I Want To Know What Love Is (With Jeff Beck)
TTITLE6=It's Only Love
TTITLE7=Sometimes I Feel Like Elvis
TTITLE8=Burnin' Love (From Lilo and Stitch)
TTITLE9=Who Am I Supposed To Love
TTITLE10=Your Day Will Come
TTITLE11=(No One's Gonna) Break Me Down
TTITLE12=You Are (From Break Me Down)
TTITLE13=Rescue Me
EXTD=Ripped By The Vet-man
EXTT0=
EXTT1=
EXTT2=
EXTT3=
EXTT4=
EXTT5=
EXTT6=
EXTT7=
EXTT8=
EXTT9=
EXTT10=
EXTT11=
EXTT12=
EXTT13=
PLAYORDER=
